<svg width="38" height="24" viewBox="0 0 38 24" fill="none" xmlns="http://www.w3.org/2000/svg">
<path fill-rule="evenodd" clip-rule="evenodd" d="M4.29289 4.29289C4.48043 4.10536 4.73478 4 5 4H19C19.2652 4 19.5196 4.10536 19.7071 4.29289C19.8946 4.48043 20 4.73478 20 5V15C20 15.2652 19.8946 15.5196 19.7071 15.7071C19.5196 15.8946 19.2652 16 19 16H7C6.73478 16 6.48043 16.1054 6.29289 16.2929L4 18.5858V5C4 4.73478 4.10536 4.48043 4.29289 4.29289ZM5 2C4.20435 2 3.44129 2.31607 2.87868 2.87868C2.31607 3.44129 2 4.20435 2 5V21C2 21.4045 2.24364 21.7691 2.61732 21.9239C2.99099 22.0787 3.42111 21.9931 3.70711 21.7071L7.41421 18H19C19.7957 18 20.5587 17.6839 21.1213 17.1213C21.6839 16.5587 22 15.7957 22 15V5C22 4.20435 21.6839 3.44129 21.1213 2.87868C20.5587 2.31607 19.7957 2 19 2H5Z" fill="#202020"/>
<path d="M29.2045 18V16.9773L33.0455 12.7727C33.4962 12.2803 33.8674 11.8523 34.1591 11.4886C34.4508 11.1212 34.6667 10.7765 34.8068 10.4545C34.9508 10.1288 35.0227 9.78788 35.0227 9.43182C35.0227 9.02273 34.9242 8.66856 34.7273 8.36932C34.5341 8.07008 34.2689 7.83901 33.9318 7.67614C33.5947 7.51326 33.2159 7.43182 32.7955 7.43182C32.3485 7.43182 31.9583 7.52462 31.625 7.71023C31.2955 7.89205 31.0398 8.14773 30.858 8.47727C30.6799 8.80682 30.5909 9.19318 30.5909 9.63636H29.25C29.25 8.95455 29.4072 8.35606 29.7216 7.84091C30.036 7.32576 30.464 6.92424 31.0057 6.63636C31.5511 6.34848 32.1629 6.20455 32.8409 6.20455C33.5227 6.20455 34.1269 6.34848 34.6534 6.63636C35.1799 6.92424 35.5928 7.3125 35.892 7.80114C36.1913 8.28977 36.3409 8.83333 36.3409 9.43182C36.3409 9.85985 36.2633 10.2784 36.108 10.6875C35.9564 11.0928 35.6913 11.5455 35.3125 12.0455C34.9375 12.5417 34.4167 13.1477 33.75 13.8636L31.1364 16.6591V16.75H36.5455V18H29.2045Z" fill="white"/>
</svg>
